# xmcd
#
# Track frame offsets: 
#        150
#        11381
#        22061
#        33636
#        45153
#        59467
#        70536
#        78447
#        97382
#        106426
#        119354
#        130786
#        141034
#        153645
#        170744
#        185719
#        198647
#        215876
#
# Disc length: 3045 seconds
#
# Revision: 0
# Processed by: cddbd v1.5.2PL0 Copyright (c) Steve Scherf et al.
# Submitted via: ExactAudioCopyFreeDBPlugin 1.0
#
DISCID=0c0be312
DTITLE=A*11 - Warning: Contains Country Music
DYEAR=2011
DGENRE=Country
TTITLE0=A*11
TTITLE1=Just Between Me And You
TTITLE2=I Just Came To Get My Baby Out Of Here
TTITLE3=I'm Laying It On The Line
TTITLE4=Apartment #9
TTITLE5=I Know One
TTITLE6=The Finger
TTITLE7=Begging To You
TTITLE8=Sam's Place
TTITLE9=Drivin' Nails In My Coffin
TTITLE10=Just Walk On By
TTITLE11=Motel Time Again
TTITLE12=I Fall To Pieces
TTITLE13=Wild Side Of Life
TTITLE14=Boot Heel Drag
TTITLE15=Invitation To The Blues
TTITLE16=Bubbles In My Beer
TTITLE17=Wine Me Up
EXTD=
EXTT0=
EXTT1=
EXTT2=
EXTT3=
EXTT4=
EXTT5=
EXTT6=
EXTT7=
EXTT8=
EXTT9=
EXTT10=
EXTT11=
EXTT12=
EXTT13=
EXTT14=
EXTT15=
EXTT16=
EXTT17=
PLAYORDER=
